<svg width="53" height="53" viewBox="0 0 53 53" fill="none" xmlns="http://www.w3.org/2000/svg">
<g filter="url(#filter0_d_121_53335)">
<path d="M49 22.5C49 34.9264 38.9264 45 26.5 45C14.0736 45 4 34.9264 4 22.5C4 10.0736 14.0736 0 26.5 0C38.9264 0 49 10.0736 49 22.5Z" fill="#3056D3"/>
</g>
<g clip-path="url(#clip0_121_53335)">
<g filter="url(#filter1_d_121_53335)">
<path d="M31.3438 32.1562C28.7813 32.1562 25.0938 30.3125 21.7188 27.0937C17.125 22.7187 15.1563 17.8437 17.1563 15.7187C17.25 15.625 17.3438 15.5625 17.4688 15.5L20.0938 14.0312C20.6875 13.7187 21.4375 13.875 21.8125 14.4062L23.7188 17.125C23.9063 17.4062 24 17.75 23.9375 18.0625C23.875 18.4062 23.6875 18.6875 23.4063 18.875L22.25 19.625C22.1875 19.6562 22.1875 19.6875 22.1875 19.7187C22.1875 19.75 22.1875 19.7812 22.2188 19.8125C23.0625 21.0625 25.4688 24.25 29.2813 26.5312C29.375 26.5937 29.5313 26.5625 29.5938 26.5L30.4063 25.4062C30.8125 24.8437 31.5938 24.7187 32.1875 25.0937L35.0313 26.9062C35.625 27.2812 35.8125 28.0312 35.4375 28.625L33.875 31.125C33.8125 31.25 33.7188 31.3437 33.625 31.4062C33.0313 31.9375 32.25 32.1562 31.3438 32.1562ZM20.75 14.9375C20.7188 14.9375 20.6875 14.9375 20.625 14.9687L18 16.4375C17.9688 16.4687 17.9688 16.4687 17.9375 16.4687C16.625 17.875 18.125 22.1562 22.5 26.3125C26.875 30.4687 31.4063 31.9062 32.9063 30.625C32.9063 30.625 32.9063 30.625 32.9375 30.5937L34.5 28.0937C34.5313 28.0312 34.5313 27.9375 34.4375 27.875L31.5938 26.0625C31.5 26 31.3438 26.0312 31.2813 26.0937L30.4688 27.1875C30.0625 27.7187 29.3125 27.875 28.7188 27.5312C24.6875 25.125 22.1875 21.7812 21.3125 20.4375C21.125 20.1562 21.0625 19.8437 21.125 19.5C21.1875 19.1875 21.375 18.875 21.6563 18.7187L22.8125 17.9375C22.875 17.9062 22.875 17.875 22.875 17.8437C22.875 17.8125 22.875 17.7812 22.8438 17.7187L20.9375 15C20.9063 14.9687 20.8125 14.9375 20.75 14.9375Z" fill="white"/>
</g>
</g>
<defs>
<filter id="filter0_d_121_53335" x="0" y="0" width="53" height="53" filterUnits="userSpaceOnUse" color-interpolation-filters="sRGB">
<feFlood flood-opacity="0" result="BackgroundImageFix"/>
<feColorMatrix in="SourceAlpha" type="matrix" values="0 0 0 0 0 0 0 0 0 0 0 0 0 0 0 0 0 0 127 0" result="hardAlpha"/>
<feOffset dy="4"/>
<feGaussianBlur stdDeviation="2"/>
<feComposite in2="hardAlpha" operator="out"/>
<feColorMatrix type="matrix" values="0 0 0 0 0 0 0 0 0 0 0 0 0 0 0 0 0 0 0.25 0"/>
<feBlend mode="normal" in2="BackgroundImageFix" result="effect1_dropShadow_121_53335"/>
<feBlend mode="normal" in="SourceGraphic" in2="effect1_dropShadow_121_53335" result="shape"/>
</filter>
<filter id="filter1_d_121_53335" x="12.3773" y="13.8713" width="27.2539" height="26.2849" filterUnits="userSpaceOnUse" color-interpolation-filters="sRGB">
<feFlood flood-opacity="0" result="BackgroundImageFix"/>
<feColorMatrix in="SourceAlpha" type="matrix" values="0 0 0 0 0 0 0 0 0 0 0 0 0 0 0 0 0 0 127 0" result="hardAlpha"/>
<feOffset dy="4"/>
<feGaussianBlur stdDeviation="2"/>
<feComposite in2="hardAlpha" operator="out"/>
<feColorMatrix type="matrix" values="0 0 0 0 0 0 0 0 0 0 0 0 0 0 0 0 0 0 0.25 0"/>
<feBlend mode="normal" in2="BackgroundImageFix" result="effect1_dropShadow_121_53335"/>
<feBlend mode="normal" in="SourceGraphic" in2="effect1_dropShadow_121_53335" result="shape"/>
</filter>
<clipPath id="clip0_121_53335">
<rect width="20" height="20" fill="white" transform="translate(16 13)"/>
</clipPath>
</defs>
</svg>
